<?xml version="1.0" encoding="utf-8"?>
<!-- Uploaded to: SVG Repo, www.svgrepo.com, Generator: SVG Repo Mixer Tools -->
<svg width="800px" height="800px" viewBox="0 0 1024 1024" class="icon"  version="1.1" xmlns="http://www.w3.org/2000/svg"><path d="M328.385876 876.079298l36.764385 99.103993h280.704068l26.19862-99.103993-155.049796 27.173676" fill="#42BC90" /><path d="M386.873217 121.61019h195.666448l-14.386064 67.134963 32.096906 57.544254 33.439606 52.7489-33.439606 54.347351-33.695357 43.15819-7.992258 33.567482-204.601792 2.717367 17.582967-42.678655 28.116762-23.816927 23.033686-38.618588 18.494084-39.865381-24.88789-30.370578-29.427492-30.370579-20.124505-49.555193" fill="#FFB578" /><path d="M469.768911 893.949986c-176.532984 0-319.626362-174.164079-319.626362-389.031126v-85.836846l140.376011 13.922513 140.40798-13.922513 140.40798 13.922513 140.407979-13.922513 140.40798 13.922513v71.914333c0 214.867048-143.093378 389.031126-319.626362 389.031126h-62.755206z" fill="#5FCEFF" /><path d="M137.511586 497.246293l146.117648 71.930317 150.254441-71.930317 145.459087 71.930317 145.459086-71.930317 115.088508 71.930317v87.33939l-140.577415-50.575005-137.553146 57.448347-131.073023-59.046799-127.706684 52.173457-152.837539-66.361312" fill="#FF4893" /><path d="M532.524117 916.32511h-62.755206c-188.582111 0-342.004683-153.422572-342.004683-342.001486v-141.494927a22.378321 22.378321 0 1 1 44.756642 0v141.494927c0 163.905217 133.342824 297.244844 297.248041 297.244844h62.755206c163.905217 0 297.248041-133.342824 297.248041-297.244844v-141.494927a22.378321 22.378321 0 1 1 44.756642 0v141.494927c0 188.578914-153.422572 342.001486-342.004683 342.001486z" fill="#4F46A3" /><path d="M851.287315 455.207018H149.279386a22.378321 22.378321 0 1 1 0-44.756642h702.007929a22.378321 22.378321 0 1 1 0 44.756642zM644.415722 992.03097h-286.538416a22.378321 22.378321 0 0 1-21.33613-15.629659l-32.512504-102.751659a22.371927 22.371927 0 0 1 14.584272-28.084793 22.365533 22.365533 0 0 1 28.087989 14.587468l27.566895 87.122001h253.757373l27.566894-87.122001a22.384715 22.384715 0 0 1 28.08799-14.587468 22.375124 22.375124 0 0 1 14.584271 28.084793l-32.512503 102.751659a22.378321 22.378321 0 0 1-21.336131 15.629659zM852.137692 590.154688a22.282414 22.282414 0 0 1-9.264625-2.020443l-131.130568-59.743723-131.130567 59.743723a22.381518 22.381518 0 0 1-18.558022 0l-131.130567-59.743723-131.12737 59.743723a22.381518 22.381518 0 0 1-18.558022 0l-140.376011-63.973226a22.378321 22.378321 0 0 1 18.558022-40.728544l131.098598 59.743723 131.127371-59.743723a22.381518 22.381518 0 0 1 18.558021 0l131.130568 59.743723 131.130567-59.743723a22.381518 22.381518 0 0 1 18.558022 0l140.40798 63.973226a22.378321 22.378321 0 0 1-9.293397 42.748987z" fill="#4F46A3" /><path d="M835.894227 687.692198a22.298398 22.298398 0 0 1-9.55874-2.157909l-125.654272-59.475184-125.622303 59.475184a22.41029 22.41029 0 0 1-19.149449 0l-125.619107-59.471987L304.664856 685.534289a22.41029 22.41029 0 0 1-19.149449 0l-135.197028-64.005195a22.378321 22.378321 0 0 1 19.149449-40.453611l125.622303 59.471987 125.622304-59.471987a22.41029 22.41029 0 0 1 19.149449 0l125.619106 59.471987 125.622304-59.471987a22.41029 22.41029 0 0 1 19.149449 0l135.228997 64.005195a22.378321 22.378321 0 0 1-9.587513 42.61152zM367.65983 447.179595a22.378321 22.378321 0 0 1-22.378321-22.378321c0-40.696575 21.476794-61.693834 38.736873-78.563891 14.667391-14.334913 25.265124-24.699273 25.265125-46.559696 0-21.885998-10.60093-32.250357-25.274716-46.594861-17.253685-16.870057-38.727283-37.870513-38.727282-78.563891 0-40.696575 21.473597-61.697031 38.730479-78.573482l0.607412-0.594624c15.754338-15.402679 24.664107-25.130854 24.664107-45.990647a22.378321 22.378321 0 1 1 44.756642 0c0 40.709363-22.036252 62.256489-38.126266 77.988449l-0.607411 0.597821c-14.667391 14.344504-25.265124 24.708863-25.265125 46.572483 0 21.860423 10.594537 32.221585 25.261928 46.559695 17.260079 16.876451 38.740071 37.880104 38.740071 78.599057 0 40.699772-21.479991 61.697031-38.736874 78.567088-14.667391 14.334913-25.265124 24.699273-25.265125 46.556499a22.378321 22.378321 0 0 1-22.381517 22.378321z" fill="#4F46A3" /><path d="M463.56692 447.179595a22.378321 22.378321 0 0 1-22.378321-22.378321c0-40.696575 21.476794-61.693834 38.736873-78.563891 14.667391-14.334913 25.265124-24.699273 25.265125-46.559696 0-21.885998-10.60093-32.250357-25.274716-46.594861-17.253685-16.870057-38.727283-37.870513-38.727282-78.563891 0-40.696575 21.473597-61.697031 38.730479-78.573482l0.607412-0.594624c15.754338-15.402679 24.664107-25.130854 24.664107-45.990647a22.378321 22.378321 0 1 1 44.756642 0c0 40.709363-22.036252 62.256489-38.126266 77.988449l-0.607411 0.597821c-14.667391 14.344504-25.265124 24.708863-25.265125 46.572483 0 21.860423 10.594537 32.221585 25.261928 46.559695 17.260079 16.876451 38.740071 37.880104 38.740071 78.599057 0 40.699772-21.479991 61.697031-38.736874 78.567088-14.667391 14.334913-25.265124 24.699273-25.265125 46.556499a22.378321 22.378321 0 0 1-22.381517 22.378321z" fill="#4F46A3" /><path d="M559.47401 447.179595a22.378321 22.378321 0 0 1-22.378321-22.378321c0-40.696575 21.476794-61.693834 38.736873-78.563891 14.667391-14.334913 25.265124-24.699273 25.265125-46.559696 0-21.885998-10.60093-32.250357-25.274716-46.594861-17.253685-16.870057-38.727283-37.870513-38.727282-78.563891 0-40.696575 21.473597-61.697031 38.730479-78.573482l0.607412-0.594624c15.754338-15.402679 24.664107-25.130854 24.664107-45.990647a22.378321 22.378321 0 1 1 44.756642 0c0 40.709363-22.036252 62.256489-38.126266 77.988449l-0.607411 0.597821c-14.667391 14.344504-25.265124 24.708863-25.265125 46.572483 0 21.860423 10.594537 32.221585 25.261928 46.559695 17.260079 16.876451 38.740071 37.880104 38.740071 78.599057 0 40.699772-21.479991 61.697031-38.736874 78.567088-14.667391 14.334913-25.265124 24.699273-25.265125 46.556499a22.378321 22.378321 0 0 1-22.381517 22.378321z" fill="#4F46A3" /><path d="M941.503918 133.726452H258.997097a22.378321 22.378321 0 1 1 0-44.756642h682.506821a22.378321 22.378321 0 1 1 0 44.756642zM364.494896 199.931117h-105.497799a22.378321 22.378321 0 1 1 0-44.756642h105.497799a22.378321 22.378321 0 1 1 0 44.756642zM947.354251 199.931117h-384.459555a22.378321 22.378321 0 1 1 0-44.756642h384.459555a22.378321 22.378321 0 1 1 0 44.756642z" fill="#4F46A3" /></svg>